<svg width="171" height="109" viewBox="0 0 171 109" fill="none" xmlns="http://www.w3.org/2000/svg">
<path d="M31.223 48V43.32H38.903C40.3963 43.32 41.6363 43 42.623 42.36C43.6096 41.6933 44.3563 40.7333 44.863 39.48C45.3696 38.2267 45.623 36.6933 45.623 34.88C45.623 33.3867 45.463 32.1067 45.143 31.04C44.823 29.9467 44.343 29.0533 43.703 28.36C43.0896 27.6667 42.303 27.1467 41.343 26.8C40.4096 26.4533 39.303 26.28 38.023 26.28H31.223V21.6H37.823C41.023 21.6 43.6363 22.12 45.663 23.16C47.6896 24.2 49.183 25.6933 50.143 27.64C51.103 29.56 51.583 31.8667 51.583 34.56C51.583 36.5867 51.343 38.3467 50.863 39.84C50.383 41.3333 49.7296 42.6 48.903 43.64C48.103 44.68 47.1696 45.52 46.103 46.16C45.0363 46.8 43.903 47.2667 42.703 47.56C41.503 47.8533 40.2896 48 39.063 48H31.223ZM28.463 48V21.6H34.223V48H28.463ZM67.9498 48.56C66.0298 48.56 64.3098 48.2667 62.7898 47.68C61.2698 47.0667 59.9632 46.1867 58.8698 45.04C57.8032 43.8667 56.9765 42.44 56.3898 40.76C55.8298 39.0533 55.5498 37.1067 55.5498 34.92C55.5498 31.8 56.0965 29.2267 57.1898 27.2C58.2832 25.1467 59.7765 23.6133 61.6698 22.6C63.5898 21.56 65.7498 21.04 68.1498 21.04C70.0165 21.04 71.7098 21.3467 73.2298 21.96C74.7498 22.5467 76.0432 23.4267 77.1098 24.6C78.2032 25.7467 79.0432 27.1867 79.6298 28.92C80.2165 30.6267 80.5098 32.5867 80.5098 34.8C80.5098 37.0667 80.2165 39.0533 79.6298 40.76C79.0432 42.4667 78.1898 43.9067 77.0698 45.08C75.9765 46.2267 74.6565 47.0933 73.1098 47.68C71.5632 48.2667 69.8432 48.56 67.9498 48.56ZM68.1098 43.96C69.5232 43.96 70.7098 43.6133 71.6698 42.92C72.6298 42.2267 73.3632 41.2267 73.8698 39.92C74.3765 38.6133 74.6298 37.0133 74.6298 35.12C74.6298 33.1467 74.3632 31.4667 73.8298 30.08C73.3232 28.6933 72.5765 27.64 71.5898 26.92C70.6032 26.1733 69.4032 25.8 67.9898 25.8C66.6032 25.8 65.4165 26.16 64.4298 26.88C63.4698 27.5733 62.7232 28.5867 62.1898 29.92C61.6832 31.2533 61.4298 32.9067 61.4298 34.88C61.4298 36.32 61.5765 37.6133 61.8698 38.76C62.1898 39.88 62.6298 40.8267 63.1898 41.6C63.7498 42.3733 64.4432 42.96 65.2698 43.36C66.0965 43.76 67.0432 43.96 68.1098 43.96ZM85.377 48V21.6H91.137V48H85.377ZM86.577 48V43.16H102.297V48H86.577ZM105.69 48V21.6H111.45V48H105.69ZM106.89 48V43.16H122.61V48H106.89ZM129.253 48V39.76L119.533 21.6H126.413L132.053 34.56H132.293L137.893 21.6H144.693L135.053 39.72V48H129.253Z" fill="white"/>
<rect width="122.5" height="3" transform="translate(24 53)" fill="white"/>
<path d="M27.7223 87V81.56L41.0823 65.92V65.44H28.1623V60.6H47.4023V66.52L34.4423 81.72V82.16H47.9223V87H27.7223ZM109.44 87V60.6H118.12L125.48 80.48H125.68L132.88 60.6H141.16V87H135.68L136.04 66.44H135.6L127.6 87H122.8L114.92 66.44H114.48L114.84 87H109.44Z" fill="white"/>
<path d="M63.1061 87.56C61.1861 87.56 59.4661 87.2667 57.9461 86.68C56.4261 86.0667 55.1194 85.1867 54.0261 84.04C52.9594 82.8667 52.1328 81.44 51.5461 79.76C50.9861 78.0533 50.7061 76.1067 50.7061 73.92C50.7061 70.8 51.2528 68.2267 52.3461 66.2C53.4394 64.1467 54.9328 62.6133 56.8261 61.6C58.7461 60.56 60.9061 60.04 63.3061 60.04C65.1728 60.04 66.8661 60.3467 68.3861 60.96C69.9061 61.5467 71.1994 62.4267 72.2661 63.6C73.3594 64.7467 74.1994 66.1867 74.7861 67.92C75.3728 69.6267 75.6661 71.5867 75.6661 73.8C75.6661 76.0667 75.3728 78.0533 74.7861 79.76C74.1994 81.4667 73.3461 82.9067 72.2261 84.08C71.1328 85.2267 69.8128 86.0933 68.2661 86.68C66.7194 87.2667 64.9994 87.56 63.1061 87.56ZM63.2661 82.96C64.6794 82.96 65.8661 82.6133 66.8261 81.92C67.7861 81.2267 68.5194 80.2267 69.0261 78.92C69.5328 77.6133 69.7861 76.0133 69.7861 74.12C69.7861 72.1467 69.5194 70.4667 68.9861 69.08C68.4794 67.6933 67.7328 66.64 66.7461 65.92C65.7594 65.1733 64.5594 64.8 63.1461 64.8C61.7594 64.8 60.5728 65.16 59.5861 65.88C58.6261 66.5733 57.8794 67.5867 57.3461 68.92C56.8394 70.2533 56.5861 71.9067 56.5861 73.88C56.5861 75.32 56.7328 76.6133 57.0261 77.76C57.3461 78.88 57.7861 79.8267 58.3461 80.6C58.9061 81.3733 59.5994 81.96 60.4261 82.36C61.2528 82.76 62.1994 82.96 63.2661 82.96ZM92.0123 87.56C90.0923 87.56 88.3723 87.2667 86.8523 86.68C85.3323 86.0667 84.0257 85.1867 82.9323 84.04C81.8657 82.8667 81.039 81.44 80.4523 79.76C79.8923 78.0533 79.6123 76.1067 79.6123 73.92C79.6123 70.8 80.159 68.2267 81.2523 66.2C82.3457 64.1467 83.839 62.6133 85.7323 61.6C87.6523 60.56 89.8123 60.04 92.2123 60.04C94.079 60.04 95.7723 60.3467 97.2923 60.96C98.8123 61.5467 100.106 62.4267 101.172 63.6C102.266 64.7467 103.106 66.1867 103.692 67.92C104.279 69.6267 104.572 71.5867 104.572 73.8C104.572 76.0667 104.279 78.0533 103.692 79.76C103.106 81.4667 102.252 82.9067 101.132 84.08C100.039 85.2267 98.719 86.0933 97.1723 86.68C95.6257 87.2667 93.9057 87.56 92.0123 87.56ZM92.1723 82.96C93.5857 82.96 94.7723 82.6133 95.7323 81.92C96.6923 81.2267 97.4257 80.2267 97.9323 78.92C98.439 77.6133 98.6923 76.0133 98.6923 74.12C98.6923 72.1467 98.4257 70.4667 97.8923 69.08C97.3857 67.6933 96.639 66.64 95.6523 65.92C94.6657 65.1733 93.4657 64.8 92.0523 64.8C90.6657 64.8 89.479 65.16 88.4923 65.88C87.5323 66.5733 86.7857 67.5867 86.2523 68.92C85.7457 70.2533 85.4923 71.9067 85.4923 73.88C85.4923 75.32 85.639 76.6133 85.9323 77.76C86.2523 78.88 86.6923 79.8267 87.2523 80.6C87.8123 81.3733 88.5057 81.96 89.3323 82.36C90.159 82.76 91.1057 82.96 92.1723 82.96Z" fill="white"/>
<rect width="30" height="3" transform="translate(9.01367 5.00073)" fill="white"/>
<rect width="30" height="3" transform="translate(12 5) rotate(89.9691)" fill="white"/>
<rect width="30" height="3" transform="translate(162 104.001) rotate(-180)" fill="white"/>
<rect width="30" height="3" transform="translate(159.013 104.002) rotate(-90.0309)" fill="white"/>
</svg>
